<svg xmlns="http://www.w3.org/2000/svg" width="72" height="72" viewBox="0 0 72 72" role="img" aria-labelledby="t"><title id="t">Python</title><rect x="1" y="1" width="70" height="70" rx="6" fill="#fff" stroke="#d8dce3"/><path d="M22 16h16c5 0 8 3 8 8v8H29c-6 0-10 4-10 10v3h-3V29c0-8 6-13 14-13" fill="#2a52a0"/><path d="M50 56H34c-5 0-8-3-8-8v-8h17c6 0 10-4 10-10v-3h3v16c0 8-6 13-14 13" fill="#07607a"/><circle cx="34" cy="22" r="2" fill="#fff"/><circle cx="38" cy="50" r="2" fill="#fff"/><text x="36" y="67" text-anchor="middle" font-family="Segoe UI,sans-serif" font-size="8" fill="#15181e">Python</text></svg>
